# xmcd
#
# Track frame offsets: 
#        150
#        28289
#        53413
#        80528
#        95382
#        117863
#        134561
#        158288
#        170451
#        199409
#        216111
#        233397
#        248907
#        280742
#        311388
#
# Disc length: 4433 seconds
#
# Revision: 3
# Processed by: cddbd v1.5.2PL0 Copyright (c) Steve Scherf et al.
# Submitted via: ExactAudioCopy v0.99pb4
#
DISCID=c0114f0f
DTITLE=Various Artist - Neo.Pop.04
DYEAR=2004
DGENRE=Indie
TTITLE0=Northern Lite - Gone (Boom Mix)
TTITLE1=Swayzak - State Of Grace (Silicon Scally Rework)
TTITLE2=Arsenal - Longee
TTITLE3=Scratch Massive - Seeing Is Believing
TTITLE4=Dub Pistorls - Six Million Ways To Live (Paul Dalex Vocal Mix)
TTITLE5=Seelenluft - Manila (Headman Remix)
TTITLE6=Superpitcher - Baby¥s On Fire (Westbam Mix)
TTITLE7=My Robot Friend - Way Down
TTITLE8=Dj All*Star - Rocksoul
TTITLE9=Warren Suicide - Butcher Boy
TTITLE10=Northern Lite - Curious
TTITLE11=Junghanﬂ - Wrong
TTITLE12=Turntablerocker - I Heard You Were Dead
TTITLE13=Kleinkariert - Elite
TTITLE14=Cosmonauts Of Innerspace - Allergic Ego
EXTD=YEAR: 2004
EXTT0=
EXTT1=
EXTT2=
EXTT3=
EXTT4=
EXTT5=
EXTT6=
EXTT7=
EXTT8=
EXTT9=
EXTT10=
EXTT11=
EXTT12=
EXTT13=
EXTT14=
PLAYORDER=
